{
	"asset":{
		"generator":"Khronos glTF Blender I/O v4.0.44",
		"version":"2.0"
	},
	"scene":0,
	"scenes":[
		{
			"name":"Scene",
			"nodes":[
				14
			]
		}
	],
	"nodes":[
		{
			"name":"Object_6",
			"translation":[
				0,
				-0.349255234003067,
				-0.013356685638427734
			]
		},
		{
			"name":"Object_8",
			"translation":[
				0.016326338052749634,
				-0.349255234003067,
				-0.013356685638427734
			]
		},
		{
			"name":"switchbone_01",
			"rotation":[
				1.7763568394002505e-15,
				-1.7114272665708086e-08,
				-2.8137147565408225e-23,
				1
			],
			"translation":[
				0.014594529755413532,
				0.06619119644165039,
				4.268365859985352
			]
		},
		{
			"children":[
				2
			],
			"name":"root_00",
			"rotation":[
				1.7763568394002505e-15,
				-2.9778502051908996e-23,
				1.3068153635566033e-22,
				1
			]
		},
		{
			"name":"switchbone001_03",
			"rotation":[
				1.7763568394002505e-15,
				-1.7114272665708086e-08,
				-2.8137147565408225e-23,
				1
			],
			"translation":[
				0.014594529755413532,
				0.06619119644165039,
				4.268365859985352
			]
		},
		{
			"children":[
				4
			],
			"name":"root001_02",
			"rotation":[
				1.7763568394002505e-15,
				-2.9778502051908996e-23,
				1.3068153635566033e-22,
				1
			]
		},
		{
			"children":[
				3,
				5
			],
			"name":"_rootJoint",
			"rotation":[
				-8.557135444675623e-09,
				1.7114272665708086e-08,
				-2.928983286277023e-16,
				1
			]
		},
		{
			"mesh":0,
			"name":"Object_9",
			"skin":0
		},
		{
			"name":"wallplate metal",
			"translation":[
				3.540126323699951,
				-0.349255234003067,
				-0.013356685638427734
			]
		},
		{
			"name":"wallplate plastic001",
			"translation":[
				-3.646127700805664,
				-0.349255234003067,
				-0.013356685638427734
			]
		},
		{
			"children":[
				0,
				1,
				7,
				8,
				9,
				6
			],
			"name":"Object_4"
		},
		{
			"children":[
				10
			],
			"name":"RootNode"
		},
		{
			"children":[
				11
			],
			"name":"Object_2"
		},
		{
			"children":[
				12
			],
			"name":"2572851d0f89418da7ff6d56e583ab61.fbx",
			"rotation":[
				1,
				0,
				0,
				4.370956823210575e-15
			],
			"scale":[
				0.02539999969303608,
				0.02539999969303608,
				0.02539999969303608
			]
		},
		{
			"children":[
				13
			],
			"name":"Sketchfab_model",
			"rotation":[
				0.70710688829422,
				0,
				0,
				0.7071066498756409
			]
		}
	],
	"animations":[
		{
			"channels":[
				{
					"sampler":0,
					"target":{
						"node":6,
						"path":"translation"
					}
				},
				{
					"sampler":1,
					"target":{
						"node":6,
						"path":"rotation"
					}
				},
				{
					"sampler":2,
					"target":{
						"node":6,
						"path":"scale"
					}
				},
				{
					"sampler":3,
					"target":{
						"node":3,
						"path":"translation"
					}
				},
				{
					"sampler":4,
					"target":{
						"node":3,
						"path":"rotation"
					}
				},
				{
					"sampler":5,
					"target":{
						"node":3,
						"path":"scale"
					}
				},
				{
					"sampler":6,
					"target":{
						"node":2,
						"path":"translation"
					}
				},
				{
					"sampler":7,
					"target":{
						"node":2,
						"path":"rotation"
					}
				},
				{
					"sampler":8,
					"target":{
						"node":2,
						"path":"scale"
					}
				},
				{
					"sampler":9,
					"target":{
						"node":5,
						"path":"translation"
					}
				},
				{
					"sampler":10,
					"target":{
						"node":5,
						"path":"rotation"
					}
				},
				{
					"sampler":11,
					"target":{
						"node":5,
						"path":"scale"
					}
				},
				{
					"sampler":12,
					"target":{
						"node":4,
						"path":"translation"
					}
				},
				{
					"sampler":13,
					"target":{
						"node":4,
						"path":"rotation"
					}
				},
				{
					"sampler":14,
					"target":{
						"node":4,
						"path":"scale"
					}
				}
			],
			"name":"Take 001",
			"samplers":[
				{
					"input":7,
					"interpolation":"STEP",
					"output":8
				},
				{
					"input":7,
					"interpolation":"STEP",
					"output":9
				},
				{
					"input":7,
					"interpolation":"STEP",
					"output":10
				},
				{
					"input":7,
					"interpolation":"STEP",
					"output":11
				},
				{
					"input":7,
					"interpolation":"STEP",
					"output":12
				},
				{
					"input":7,
					"interpolation":"STEP",
					"output":13
				},
				{
					"input":7,
					"interpolation":"STEP",
					"output":14
				},
				{
					"input":15,
					"interpolation":"LINEAR",
					"output":16
				},
				{
					"input":7,
					"interpolation":"STEP",
					"output":17
				},
				{
					"input":7,
					"interpolation":"STEP",
					"output":18
				},
				{
					"input":7,
					"interpolation":"STEP",
					"output":19
				},
				{
					"input":7,
					"interpolation":"STEP",
					"output":20
				},
				{
					"input":7,
					"interpolation":"STEP",
					"output":21
				},
				{
					"input":15,
					"interpolation":"LINEAR",
					"output":22
				},
				{
					"input":7,
					"interpolation":"STEP",
					"output":23
				}
			]
		}
	],
	"materials":[
		{
			"doubleSided":true,
			"name":"01_-_Default",
			"normalTexture":{
				"index":0
			},
			"occlusionTexture":{
				"index":1
			},
			"pbrMetallicRoughness":{
				"baseColorTexture":{
					"index":2
				},
				"metallicFactor":0,
				"metallicRoughnessTexture":{
					"index":1
				}
			}
		}
	],
	"meshes":[
		{
			"name":"wallplate plastic001_01 - Default_0",
			"primitives":[
				{
					"attributes":{
						"POSITION":0,
						"NORMAL":1,
						"TEXCOORD_0":2,
						"JOINTS_0":3,
						"WEIGHTS_0":4
					},
					"indices":5,
					"material":0
				}
			]
		}
	],
	"textures":[
		{
			"sampler":0,
			"source":0
		},
		{
			"sampler":0,
			"source":1
		},
		{
			"sampler":0,
			"source":2
		}
	],
	"images":[
		{
			"mimeType":"image/png",
			"name":"01_-_Default_normal",
			"uri":"01_-_Default_normal.png"
		},
		{
			"mimeType":"image/png",
			"name":"01_-_Default_metallicRoughness",
			"uri":"01_-_Default_metallicRoughness.png"
		},
		{
			"mimeType":"image/png",
			"name":"01_-_Default_baseColor",
			"uri":"01_-_Default_baseColor.png"
		}
	],
	"skins":[
		{
			"inverseBindMatrices":6,
			"joints":[
				6,
				3,
				2,
				5,
				4
			],
			"name":"Object_4"
		}
	],
	"accessors":[
		{
			"bufferView":0,
			"componentType":5126,
			"count":235,
			"max":[
				0.06896203756332397,
				0.21709378063678741,
				0.036635175347328186
			],
			"min":[
				-0.06813265383243561,
				-0.000339260179316625,
				-0.013613566756248474
			],
			"type":"VEC3"
		},
		{
			"bufferView":1,
			"componentType":5126,
			"count":235,
			"type":"VEC3"
		},
		{
			"bufferView":2,
			"componentType":5126,
			"count":235,
			"type":"VEC2"
		},
		{
			"bufferView":3,
			"componentType":5121,
			"count":235,
			"type":"VEC4"
		},
		{
			"bufferView":4,
			"componentType":5126,
			"count":235,
			"type":"VEC4"
		},
		{
			"bufferView":5,
			"componentType":5123,
			"count":798,
			"type":"SCALAR"
		},
		{
			"bufferView":6,
			"componentType":5126,
			"count":5,
			"type":"MAT4"
		},
		{
			"bufferView":7,
			"componentType":5126,
			"count":2,
			"max":[
				2
			],
			"min":[
				0
			],
			"type":"SCALAR"
		},
		{
			"bufferView":8,
			"componentType":5126,
			"count":2,
			"type":"VEC3"
		},
		{
			"bufferView":9,
			"componentType":5126,
			"count":2,
			"type":"VEC4"
		},
		{
			"bufferView":10,
			"componentType":5126,
			"count":2,
			"type":"VEC3"
		},
		{
			"bufferView":11,
			"componentType":5126,
			"count":2,
			"type":"VEC3"
		},
		{
			"bufferView":12,
			"componentType":5126,
			"count":2,
			"type":"VEC4"
		},
		{
			"bufferView":13,
			"componentType":5126,
			"count":2,
			"type":"VEC3"
		},
		{
			"bufferView":14,
			"componentType":5126,
			"count":2,
			"type":"VEC3"
		},
		{
			"bufferView":15,
			"componentType":5126,
			"count":49,
			"max":[
				2
			],
			"min":[
				0
			],
			"type":"SCALAR"
		},
		{
			"bufferView":16,
			"componentType":5126,
			"count":49,
			"type":"VEC4"
		},
		{
			"bufferView":17,
			"componentType":5126,
			"count":2,
			"type":"VEC3"
		},
		{
			"bufferView":18,
			"componentType":5126,
			"count":2,
			"type":"VEC3"
		},
		{
			"bufferView":19,
			"componentType":5126,
			"count":2,
			"type":"VEC4"
		},
		{
			"bufferView":20,
			"componentType":5126,
			"count":2,
			"type":"VEC3"
		},
		{
			"bufferView":21,
			"componentType":5126,
			"count":2,
			"type":"VEC3"
		},
		{
			"bufferView":22,
			"componentType":5126,
			"count":49,
			"type":"VEC4"
		},
		{
			"bufferView":23,
			"componentType":5126,
			"count":2,
			"type":"VEC3"
		}
	],
	"bufferViews":[
		{
			"buffer":0,
			"byteLength":2820,
			"byteOffset":0,
			"target":34962
		},
		{
			"buffer":0,
			"byteLength":2820,
			"byteOffset":2820,
			"target":34962
		},
		{
			"buffer":0,
			"byteLength":1880,
			"byteOffset":5640,
			"target":34962
		},
		{
			"buffer":0,
			"byteLength":940,
			"byteOffset":7520,
			"target":34962
		},
		{
			"buffer":0,
			"byteLength":3760,
			"byteOffset":8460,
			"target":34962
		},
		{
			"buffer":0,
			"byteLength":1596,
			"byteOffset":12220,
			"target":34963
		},
		{
			"buffer":0,
			"byteLength":320,
			"byteOffset":13816
		},
		{
			"buffer":0,
			"byteLength":8,
			"byteOffset":14136
		},
		{
			"buffer":0,
			"byteLength":24,
			"byteOffset":14144
		},
		{
			"buffer":0,
			"byteLength":32,
			"byteOffset":14168
		},
		{
			"buffer":0,
			"byteLength":24,
			"byteOffset":14200
		},
		{
			"buffer":0,
			"byteLength":24,
			"byteOffset":14224
		},
		{
			"buffer":0,
			"byteLength":32,
			"byteOffset":14248
		},
		{
			"buffer":0,
			"byteLength":24,
			"byteOffset":14280
		},
		{
			"buffer":0,
			"byteLength":24,
			"byteOffset":14304
		},
		{
			"buffer":0,
			"byteLength":196,
			"byteOffset":14328
		},
		{
			"buffer":0,
			"byteLength":784,
			"byteOffset":14524
		},
		{
			"buffer":0,
			"byteLength":24,
			"byteOffset":15308
		},
		{
			"buffer":0,
			"byteLength":24,
			"byteOffset":15332
		},
		{
			"buffer":0,
			"byteLength":32,
			"byteOffset":15356
		},
		{
			"buffer":0,
			"byteLength":24,
			"byteOffset":15388
		},
		{
			"buffer":0,
			"byteLength":24,
			"byteOffset":15412
		},
		{
			"buffer":0,
			"byteLength":784,
			"byteOffset":15436
		},
		{
			"buffer":0,
			"byteLength":24,
			"byteOffset":16220
		}
	],
	"samplers":[
		{
			"magFilter":9729,
			"minFilter":9987
		}
	],
	"buffers":[
		{
			"byteLength":16244,
			"uri":"scene.bin"
		}
	]
}
